<?xml version="1.0" encoding="utf-8"?>
<svg version="1.1" xmlns:xlink="http://www.w3.org/1999/xlink" width="35px" height="35px" xmlns="http://www.w3.org/2000/svg">
  <g transform="matrix(1 0 0 1 -26 -12 )">
    <path d="M 8.7158203125 2.347005208333332  C 11.397026909722223 0.7823350694444414  14.325086805555557 0  17.5 0  C 20.674913194444446 0  23.602973090277782 0.7823350694444414  26.2841796875 2.347005208333332  C 28.96538628472222 3.9116753472222188  31.088324652777782 6.034613715277778  32.65299479166667 8.7158203125  C 34.21766493055555 11.397026909722218  35 14.32508680555555  35 17.5  C 35 20.674913194444446  34.21766493055555 23.602973090277775  32.65299479166667 26.2841796875  C 31.088324652777782 28.96538628472222  28.96538628472222 31.08832465277778  26.2841796875 32.65299479166667  C 23.602973090277782 34.21766493055556  20.674913194444446 35  17.5 35  C 14.325086805555557 35  11.397026909722223 34.21766493055556  8.7158203125 32.65299479166667  C 6.034613715277779 31.08832465277778  3.9116753472222228 28.96538628472222  2.3470052083333335 26.2841796875  C 0.7823350694444443 23.602973090277775  0 20.674913194444446  0 17.5  C 0 14.32508680555555  0.7823350694444443 11.397026909722218  2.3470052083333335 8.7158203125  C 3.9116753472222228 6.034613715277778  6.034613715277779 3.9116753472222188  8.7158203125 2.347005208333332  Z M 24.723307291666668 11.598307291666668  C 24.46506076388889 11.52235243055555  24.138454861111114 11.613498263888888  23.743489583333332 11.871744791666668  C 23.71310763888889 11.886935763888888  23.640950520833332 11.959092881944441  23.527018229166668 12.088216145833332  C 23.4130859375 12.217339409722223  23.310546875 12.289496527777777  23.219401041666668 12.3046875  C 23.249782986111114 12.3046875  23.283962673611114 12.266710069444441  23.321940104166668 12.190755208333332  C 23.35991753472222 12.114800347222223  23.397894965277782 12.03125  23.435872395833332 11.940104166666668  C 23.47384982638889 11.848958333333332  23.500434027777782 11.795789930555555  23.515625 11.780598958333332  C 23.606770833333332 11.674262152777777  23.773871527777782 11.560329861111109  24.016927083333332 11.438802083333332  C 24.22960069444445 11.34765625  24.62456597222222 11.256510416666668  25.201822916666668 11.165364583333332  C 25.71831597222222 11.04383680555555  26.10568576388889 11.127387152777777  26.363932291666668 11.416015625  C 26.33355034722222 11.38563368055555  26.405707465277782 11.286892361111109  26.580403645833332 11.119791666666668  C 26.75509982638889 10.952690972222218  26.865234375 10.861545138888888  26.910807291666668 10.846354166666668  C 26.956380208333332 10.815972222222218  27.0703125 10.781792534722218  27.252604166666668 10.743815104166668  C 27.434895833333332 10.705837673611109  27.548828125 10.648871527777777  27.594401041666668 10.572916666666668  L 27.639973958333332 10.071614583333332  C 27.457682291666668 10.08680555555555  27.32476128472222 10.033637152777777  27.2412109375 9.912109375  C 27.157660590277782 9.790581597222218  27.108289930555557 9.631076388888888  27.093098958333332 9.43359375  C 27.093098958333332 9.463975694444441  27.047526041666668 9.524739583333332  26.956380208333332 9.615885416666668  C 26.956380208333332 9.509548611111109  26.922200520833332 9.448784722222218  26.853841145833332 9.43359375  C 26.785481770833332 9.418402777777777  26.698133680555557 9.425998263888888  26.591796875 9.456380208333332  C 26.48546006944445 9.486762152777777  26.41710069444445 9.494357638888888  26.38671875 9.479166666666668  C 26.234809027777782 9.43359375  26.120876736111114 9.376627604166668  26.044921875 9.308268229166668  C 25.96896701388889 9.239908854166668  25.908203125 9.114583333333332  25.862630208333332 8.932291666666668  C 25.817057291666668 8.75  25.78667534722222 8.636067708333332  25.771484375 8.590494791666668  C 25.741102430555557 8.51453993055555  25.6689453125 8.430989583333332  25.555013020833332 8.33984375  C 25.441080729166668 8.248697916666668  25.368923611111114 8.17274305555555  25.338541666666668 8.111979166666668  C 25.32335069444445 8.081597222222218  25.304361979166668 8.039822048611109  25.281575520833332 7.986653645833332  C 25.2587890625 7.933485243055551  25.236002604166668 7.884114583333332  25.213216145833332 7.838541666666668  C 25.1904296875 7.79296875  25.160047743055557 7.751193576388887  25.1220703125 7.713216145833332  C 25.08409288194445 7.675238715277778  25.042317708333332 7.65625  24.996744791666668 7.65625  C 24.951171875 7.65625  24.89800347222222 7.694227430555551  24.837239583333332 7.770182291666668  C 24.77647569444445 7.846137152777778  24.719509548611114 7.922092013888887  24.666341145833332 7.998046875  C 24.613172743055557 8.074001736111109  24.578993055555557 8.111979166666668  24.563802083333332 8.111979166666668  C 24.518229166666668 8.081597222222218  24.47265625 8.07020399305555  24.427083333333332 8.077799479166668  C 24.381510416666668 8.085394965277777  24.347330729166668 8.092990451388888  24.324544270833332 8.1005859375  C 24.3017578125 8.108181423611109  24.267578125 8.130967881944441  24.222005208333332 8.1689453125  C 24.176432291666668 8.20692274305555  24.138454861111114 8.233506944444441  24.108072916666668 8.248697916666668  C 24.0625 8.279079861111109  23.997938368055557 8.301866319444441  23.914388020833332 8.317057291666668  C 23.830837673611114 8.332248263888888  23.766276041666668 8.347439236111109  23.720703125 8.362630208333332  C 23.948567708333332 8.286675347222218  23.94097222222222 8.203125  23.697916666666668 8.111979166666668  C 23.54600694444445 8.051215277777777  23.424479166666668 8.028428819444441  23.333333333333332 8.043619791666668  C 23.470052083333332 7.982855902777778  23.527018229166668 7.891710069444441  23.504231770833332 7.770182291666668  C 23.4814453125 7.648654513888887  23.416883680555557 7.542317708333332  23.310546875 7.451171875  L 23.424479166666668 7.451171875  C 23.40928819444445 7.390407986111109  23.3447265625 7.325846354166668  23.230794270833332 7.257486979166668  C 23.116861979166668 7.189127604166668  22.98394097222222 7.124565972222219  22.83203125 7.063802083333332  C 22.68012152777778 7.003038194444441  22.581380208333332 6.957465277777778  22.535807291666668 6.927083333333332  C 22.41427951388889 6.851128472222219  22.156032986111114 6.778971354166668  21.761067708333332 6.710611979166668  C 21.366102430555557 6.642252604166668  21.11545138888889 6.638454861111109  21.009114583333332 6.69921875  C 20.93315972222222 6.790364583333332  20.89898003472222 6.8701171875  20.906575520833332 6.9384765625  C 20.91417100694445 7.0068359375  20.94455295138889 7.113172743055551  20.997721354166668 7.257486979166668  C 21.050889756944446 7.401801215277778  21.077473958333332 7.496744791666668  21.077473958333332 7.542317708333332  C 21.092664930555557 7.633463541666668  21.050889756944446 7.732204861111109  20.9521484375 7.838541666666668  C 20.853407118055557 7.944878472222219  20.804036458333332 8.03602430555555  20.804036458333332 8.111979166666668  C 20.804036458333332 8.218315972222218  20.91037326388889 8.336046006944441  21.123046875 8.465169270833332  C 21.335720486111114 8.594292534722218  21.41167534722222 8.757595486111109  21.350911458333332 8.955078125  C 21.305338541666668 9.076605902777777  21.18381076388889 9.19813368055555  20.986328125 9.319661458333332  C 20.788845486111114 9.441189236111109  20.667317708333332 9.532335069444441  20.621744791666668 9.593098958333332  C 20.545789930555557 9.714626736111109  20.53439670138889 9.855143229166668  20.587565104166668 10.0146484375  C 20.640733506944446 10.174153645833332  20.720486111111114 10.299479166666668  20.826822916666668 10.390625  C 20.857204861111114 10.421006944444441  20.86859809027778 10.451388888888888  20.861002604166668 10.481770833333332  C 20.853407118055557 10.512152777777777  20.826822916666668 10.546332465277777  20.78125 10.584309895833332  C 20.735677083333336 10.622287326388888  20.69390190972222 10.652669270833332  20.655924479166668 10.675455729166668  C 20.617947048611114 10.6982421875  20.56857638888889 10.724826388888888  20.5078125 10.755208333333332  L 20.439453125 10.80078125  C 20.272352430555557 10.876736111111109  20.11664496527778 10.831163194444441  19.972330729166668 10.6640625  C 19.828016493055557 10.49696180555555  19.725477430555557 10.299479166666668  19.664713541666668 10.071614583333332  C 19.558376736111114 9.691840277777777  19.436848958333332 9.463975694444441  19.300130208333332 9.388020833333332  C 18.95073784722222 9.26649305555555  18.73046875 9.274088541666668  18.639322916666668 9.410807291666668  C 18.563368055555557 9.213324652777777  18.251953125000004 9.015842013888888  17.705078125 8.818359375  C 17.325303819444446 8.681640625  16.884765625 8.65125868055555  16.383463541666664 8.727213541666668  C 16.474609375 8.712022569444441  16.474609375 8.598090277777777  16.383463541666664 8.385416666666668  C 16.27712673611111 8.157552083333332  16.1328125 8.06640625  15.950520833333334 8.111979166666668  C 15.99609375 8.020833333333332  16.026475694444446 7.887912326388887  16.041666666666664 7.713216145833332  C 16.05685763888889 7.538519965277778  16.064453125 7.435980902777778  16.064453125 7.405598958333332  C 16.110026041666664 7.208116319444441  16.201171875 7.033420138888887  16.337890625 6.881510416666668  C 16.353081597222225 6.866319444444441  16.40625 6.8017578125  16.497395833333336 6.687825520833332  C 16.588541666666664 6.573893229166668  16.660698784722225 6.471354166666668  16.7138671875 6.380208333333332  C 16.76703559027778 6.2890625  16.770833333333336 6.243489583333332  16.725260416666664 6.243489583333332  C 17.256944444444446 6.304253472222219  17.63671875 6.220703125  17.864583333333332 5.992838541666668  C 17.94053819444445 5.916883680555551  18.02788628472222 5.787760416666668  18.126627604166668 5.60546875  C 18.225368923611114 5.423177083333332  18.30512152777778 5.294053819444441  18.365885416666668 5.218098958333332  C 18.502604166666668 5.126953125  18.60894097222222 5.085177951388887  18.684895833333332 5.0927734375  C 18.76085069444445 5.100368923611109  18.870985243055557 5.142144097222219  19.015299479166668 5.218098958333332  C 19.15961371527778 5.294053819444441  19.26974826388889 5.33203125  19.345703125 5.33203125  C 19.558376736111114 5.347222222222219  19.676106770833332 5.263671875  19.698893229166668 5.081380208333332  C 19.7216796875 4.899088541666668  19.664713541666668 4.747178819444441  19.527994791666668 4.625651041666668  C 19.710286458333332 4.640842013888887  19.733072916666668 4.51171875  19.596354166666668 4.23828125  C 19.53559027777778 4.131944444444441  19.47482638888889 4.063585069444441  19.4140625 4.033203125  C 19.231770833333336 3.9724392361111094  19.026692708333336 4.010416666666668  18.798828125 4.147135416666668  C 18.67730034722222 4.207899305555551  18.692491319444446 4.268663194444441  18.844401041666668 4.329427083333332  C 18.829210069444446 4.314236111111109  18.75705295138889 4.393988715277778  18.6279296875 4.568684895833332  C 18.498806423611114 4.743381076388887  18.37348090277778 4.876302083333332  18.251953125 4.967447916666668  C 18.13042534722222 5.05859375  18.008897569444446 5.020616319444441  17.887369791666668 4.853515625  C 17.872178819444446 4.838324652777778  17.830403645833332 4.735785590277778  17.762044270833332 4.5458984375  C 17.693684895833332 4.356011284722219  17.62152777777778 4.253472222222219  17.545572916666668 4.23828125  C 17.42404513888889 4.23828125  17.30251736111111 4.352213541666668  17.180989583333336 4.580078125  C 17.2265625 4.458550347222219  17.14301215277778 4.344618055555551  16.930338541666664 4.23828125  C 16.717664930555557 4.131944444444441  16.53537326388889 4.071180555555551  16.383463541666664 4.055989583333332  C 16.67209201388889 3.873697916666668  16.611328125 3.668619791666668  16.201171875 3.440755208333332  C 16.094835069444446 3.3799913194444415  15.939127604166666 3.3420138888888866  15.734049479166666 3.326822916666668  C 15.528971354166666 3.3116319444444415  15.380859375 3.3420138888888866  15.289713541666666 3.41796875  C 15.213758680555557 3.524305555555551  15.171983506944445 3.611653645833332  15.164388020833334 3.680013020833332  C 15.156792534722225 3.748372395833332  15.194769965277779 3.8091362847222188  15.2783203125 3.8623046875  C 15.361870659722225 3.9154730902777772  15.441623263888891 3.9572482638888866  15.517578125 3.987630208333332  C 15.59353298611111 4.018012152777778  15.680881076388891 4.048394097222219  15.779622395833334 4.078776041666668  C 15.878363715277779 4.109157986111109  15.942925347222225 4.131944444444441  15.973307291666666 4.147135416666668  C 16.18598090277778 4.299045138888887  16.246744791666664 4.405381944444441  16.155598958333336 4.466145833333332  C 16.12521701388889 4.481336805555551  16.060655381944446 4.507921006944441  15.9619140625 4.5458984375  C 15.863172743055557 4.583875868055551  15.775824652777779 4.618055555555551  15.699869791666666 4.6484375  C 15.623914930555557 4.678819444444441  15.578342013888891 4.709201388888887  15.563151041666666 4.739583333333332  C 15.517578125 4.800347222222219  15.517578125 4.906684027777778  15.563151041666666 5.05859375  C 15.608723958333334 5.210503472222219  15.59353298611111 5.316840277777778  15.517578125 5.377604166666668  C 15.441623263888891 5.301649305555551  15.373263888888891 5.168728298611109  15.3125 4.978841145833332  C 15.25173611111111 4.788953993055551  15.198567708333334 4.663628472222219  15.152994791666666 4.602864583333332  C 15.259331597222225 4.739583333333332  15.069444444444445 4.78515625  14.583333333333334 4.739583333333332  L 14.35546875 4.716796875  C 14.29470486111111 4.716796875  14.173177083333334 4.731987847222219  13.990885416666666 4.762369791666668  C 13.80859375 4.792751736111109  13.652886284722225 4.800347222222219  13.523763020833334 4.78515625  C 13.394639756944445 4.769965277777778  13.292100694444445 4.709201388888887  13.216145833333334 4.602864583333332  C 13.155381944444445 4.481336805555551  13.155381944444445 4.329427083333332  13.216145833333334 4.147135416666668  C 13.231336805555557 4.086371527777778  13.26171875 4.071180555555551  13.307291666666666 4.1015625  C 13.246527777777779 4.055989583333332  13.162977430555557 3.9838324652777772  13.056640625 3.885091145833332  C 12.950303819444445 3.7863498263888866  12.874348958333334 3.7217881944444415  12.828776041666666 3.69140625  C 12.129991319444445 3.919270833333332  11.416015625 4.230685763888887  10.686848958333334 4.625651041666668  C 10.777994791666666 4.640842013888887  10.869140625 4.633246527777778  10.960286458333334 4.602864583333332  C 11.036241319444445 4.572482638888887  11.134982638888891 4.523111979166668  11.256510416666666 4.454752604166668  C 11.378038194444445 4.386393229166668  11.453993055555557 4.344618055555551  11.484375 4.329427083333332  C 12.000868055555557 4.116753472222219  12.319878472222225 4.063585069444441  12.44140625 4.169921875  L 12.555338541666666 4.055989583333332  C 12.768012152777779 4.299045138888887  12.919921875 4.488932291666668  13.011067708333334 4.625651041666668  C 12.904730902777779 4.564887152777778  12.676866319444445 4.557291666666668  12.327473958333334 4.602864583333332  C 12.023654513888891 4.694010416666668  11.856553819444445 4.78515625  11.826171875 4.876302083333332  C 11.932508680555557 5.05859375  11.97048611111111 5.1953125  11.940104166666666 5.286458333333332  C 11.879340277777779 5.240885416666668  11.7919921875 5.164930555555551  11.678059895833334 5.05859375  C 11.564127604166666 4.952256944444441  11.453993055555557 4.868706597222219  11.34765625 4.807942708333332  C 11.241319444444445 4.747178819444441  11.127387152777779 4.709201388888887  11.005859375 4.694010416666668  C 10.762803819444445 4.694010416666668  10.595703125 4.701605902777778  10.504557291666666 4.716796875  C 8.286675347222223 5.932074652777778  6.5017361111111125 7.618272569444441  5.149739583333333 9.775390625  C 5.256076388888889 9.88172743055555  5.347222222222222 9.942491319444441  5.423177083333333 9.957682291666668  C 5.483940972222222 9.972873263888888  5.521918402777779 10.041232638888888  5.537109375 10.162760416666668  C 5.552300347222222 10.284288194444441  5.5712890625 10.367838541666668  5.594075520833333 10.413411458333332  C 5.616861979166667 10.458984375  5.704210069444445 10.436197916666668  5.856119791666667 10.345052083333332  C 5.992838541666667 10.466579861111109  6.015625 10.610894097222218  5.924479166666667 10.777994791666668  C 5.939670138888889 10.762803819444441  6.273871527777779 10.967881944444441  6.927083333333333 11.393229166666668  C 7.215711805555555 11.651475694444441  7.375217013888889 11.810980902777777  7.405598958333333 11.871744791666668  C 7.451171875 12.038845486111109  7.375217013888889 12.175564236111109  7.177734375 12.281901041666668  C 7.162543402777779 12.251519097222223  7.094184027777779 12.183159722222223  6.97265625 12.076822916666668  C 6.851128472222222 11.970486111111109  6.782769097222222 11.940104166666664  6.767578125 11.985677083333332  C 6.722005208333333 12.061631944444441  6.725802951388889 12.2021484375  6.778971354166667 12.4072265625  C 6.8321397569444455 12.6123046875  6.9118923611111125 12.707248263888888  7.018229166666667 12.692057291666668  C 6.9118923611111125 12.692057291666668  6.839735243055555 12.813585069444441  6.8017578125 13.056640625  C 6.7637803819444455 13.29969618055555  6.744791666666667 13.569335937499996  6.744791666666667 13.865559895833332  C 6.744791666666667 14.161783854166664  6.737196180555555 14.340277777777777  6.722005208333333 14.401041666666668  L 6.767578125 14.423828125  C 6.722005208333333 14.606119791666668  6.7637803819444455 14.8681640625  6.892903645833333 15.2099609375  C 7.022026909722222 15.5517578125  7.1853298611111125 15.699869791666668  7.3828125 15.654296875  C 7.1853298611111125 15.699869791666668  7.337239583333333 16.026475694444443  7.838541666666667 16.634114583333332  C 7.9296875 16.75564236111111  7.990451388888889 16.82400173611111  8.020833333333332 16.839192708333332  C 8.06640625 16.86957465277778  8.157552083333332 16.92654079861111  8.294270833333332 17.010091145833332  C 8.430989583333332 17.093641493055554  8.544921875 17.169596354166668  8.636067708333332 17.237955729166668  C 8.727213541666668 17.306315104166668  8.803168402777779 17.386067708333332  8.863932291666666 17.477213541666668  C 8.924696180555557 17.553168402777775  9.000651041666668 17.724066840277775  9.091796875 17.989908854166664  C 9.182942708333334 18.255750868055554  9.289279513888891 18.434244791666664  9.410807291666666 18.525390625  C 9.380425347222225 18.616536458333336  9.452582465277779 18.768446180555554  9.627278645833334 18.981119791666664  C 9.80197482638889 19.193793402777775  9.881727430555557 19.368489583333336  9.866536458333334 19.505208333333336  C 9.85134548611111 19.505208333333336  9.832356770833334 19.512803819444446  9.8095703125 19.527994791666664  C 9.786783854166668 19.54318576388889  9.767795138888891 19.55078125  9.752604166666666 19.55078125  C 9.798177083333334 19.657118055555554  9.915907118055557 19.76345486111111  10.105794270833334 19.869791666666664  C 10.29568142361111 19.976128472222218  10.413411458333334 20.074869791666664  10.458984375 20.166015625  C 10.474175347222223 20.211588541666664  10.489366319444445 20.287543402777775  10.504557291666666 20.393880208333336  C 10.519748263888891 20.50021701388889  10.542534722222225 20.58376736111111  10.572916666666666 20.64453125  C 10.60329861111111 20.70529513888889  10.6640625 20.72048611111111  10.755208333333334 20.690104166666664  C 10.785590277777779 20.386284722222218  10.60329861111111 19.915364583333336  10.208333333333334 19.27734375  C 9.98046875 18.897569444444446  9.85134548611111 18.677300347222218  9.820963541666666 18.616536458333336  C 9.775390625 18.540581597222218  9.73361545138889 18.4228515625  9.695638020833334 18.263346354166664  C 9.657660590277779 18.103841145833336  9.623480902777779 17.993706597222218  9.593098958333334 17.932942708333336  C 9.623480902777779 17.932942708333336  9.669053819444445 17.9443359375  9.729817708333334 17.967122395833336  C 9.790581597222223 17.989908854166664  9.855143229166666 18.016493055555554  9.923502604166666 18.046875  C 9.991861979166666 18.077256944444446  10.048828125 18.10763888888889  10.094401041666666 18.138020833333336  C 10.139973958333334 18.168402777777775  10.155164930555557 18.19118923611111  10.139973958333334 18.206380208333336  C 10.094401041666666 18.31271701388889  10.10959201388889 18.445638020833336  10.185546875 18.605143229166664  C 10.26150173611111 18.7646484375  10.352647569444445 18.905164930555554  10.458984375 19.026692708333336  C 10.565321180555557 19.14822048611111  10.694444444444445 19.292534722222218  10.846354166666666 19.459635416666664  C 10.998263888888891 19.62673611111111  11.089409722222225 19.725477430555554  11.119791666666666 19.755859375  C 11.2109375 19.847005208333336  11.317274305555557 19.9951171875  11.438802083333334 20.2001953125  C 11.56032986111111 20.4052734375  11.56032986111111 20.5078125  11.438802083333334 20.5078125  C 11.575520833333334 20.5078125  11.727430555555557 20.587565104166664  11.89453125 20.7470703125  C 12.061631944444445 20.906575520833336  12.190755208333334 21.0546875  12.281901041666666 21.19140625  C 12.357855902777779 21.312934027777775  12.418619791666666 21.510416666666664  12.464192708333334 21.783854166666664  C 12.509765625 22.057291666666664  12.547743055555557 22.239583333333336  12.578125 22.330729166666664  C 12.608506944444445 22.437065972222218  12.673068576388891 22.539605034722218  12.771809895833334 22.638346354166664  C 12.870551215277779 22.73708767361111  12.965494791666666 22.809244791666664  13.056640625 22.854817708333336  L 13.421223958333334 23.037109375  C 13.421223958333334 23.037109375  13.519965277777779 23.090277777777775  13.717447916666666 23.196614583333336  C 13.793402777777779 23.226996527777775  13.933919270833334 23.306749131944446  14.138997395833334 23.435872395833336  C 14.344075520833334 23.564995659722218  14.507378472222225 23.65234375  14.62890625 23.697916666666664  C 14.780815972222225 23.758680555555554  14.90234375 23.7890625  14.993489583333334 23.7890625  C 15.084635416666666 23.7890625  15.194769965277779 23.770073784722218  15.323893229166666 23.732096354166664  C 15.453016493055557 23.69411892361111  15.555555555555557 23.667534722222218  15.631510416666666 23.65234375  C 15.859375 23.621961805555554  16.079644097222225 23.735894097222218  16.292317708333336 23.994140625  C 16.504991319444446 24.252387152777775  16.66449652777778 24.41189236111111  16.770833333333336 24.47265625  C 17.317708333333336 24.761284722222218  17.735460069444446 24.844835069444446  18.024088541666668 24.723307291666664  C 17.99370659722222 24.738498263888882  17.997504340277782 24.795464409722218  18.035481770833332 24.894205729166664  C 18.07345920138889 24.99294704861111  18.13422309027778 25.110677083333336  18.2177734375 25.247395833333336  C 18.30132378472222 25.384114583333336  18.36968315972222 25.494249131944446  18.4228515625 25.577799479166664  C 18.47601996527778 25.661349826388882  18.51779513888889 25.725911458333336  18.548177083333332 25.771484375  C 18.62413194444445 25.862630208333336  18.76085069444445 25.9765625  18.958333333333332 26.11328125  C 19.15581597222222 26.25  19.29253472222222 26.363932291666668  19.368489583333332 26.455078125  C 19.459635416666668 26.39431423611111  19.512803819444446 26.32595486111111  19.527994791666668 26.25  C 19.482421875 26.37152777777778  19.53559027777778 26.5234375  19.6875 26.705729166666668  C 19.83940972222222 26.888020833333332  19.97612847222222 26.963975694444443  20.09765625 26.93359375  C 20.310329861111114 26.888020833333332  20.416666666666668 26.64496527777778  20.416666666666668 26.204427083333336  C 19.94574652777778 26.432291666666668  19.573567708333332 26.295572916666668  19.300130208333332 25.794270833333336  C 19.300130208333332 25.77907986111111  19.281141493055557 25.7373046875  19.2431640625 25.6689453125  C 19.205186631944446 25.6005859375  19.1748046875 25.536024305555554  19.152018229166668 25.475260416666664  C 19.129231770833332 25.414496527777775  19.110243055555557 25.349934895833336  19.095052083333332 25.281575520833336  C 19.079861111111114 25.213216145833336  19.079861111111114 25.15625  19.095052083333332 25.110677083333336  C 19.110243055555557 25.065104166666664  19.148220486111114 25.042317708333336  19.208984375 25.042317708333336  C 19.345703125000004 25.042317708333336  19.421657986111114 25.015733506944446  19.436848958333332 24.962565104166664  C 19.452039930555557 24.909396701388882  19.436848958333332 24.814453125  19.391276041666668 24.677734375  C 19.345703125 24.541015625  19.315321180555557 24.442274305555554  19.300130208333332 24.381510416666664  C 19.284939236111114 24.259982638888882  19.20138888888889 24.108072916666664  19.049479166666668 23.92578125  C 18.897569444444446 23.743489583333336  18.806423611111114 23.629557291666664  18.776041666666668 23.583984375  C 18.700086805555557 23.720703125  18.578559027777782 23.781467013888882  18.411458333333332 23.766276041666664  C 18.24435763888889 23.751085069444446  18.122829861111114 23.682725694444446  18.046875 23.561197916666664  C 18.046875000000004 23.576388888888882  18.035481770833336 23.6181640625  18.0126953125 23.6865234375  C 17.989908854166668 23.7548828125  17.978515625000004 23.804253472222218  17.978515625 23.834635416666664  C 17.781032986111114 23.834635416666664  17.667100694444446 23.827039930555554  17.63671875 23.811848958333336  C 17.65190972222222 23.766276041666664  17.6708984375 23.633355034722218  17.693684895833332 23.4130859375  C 17.716471354166668 23.192816840277775  17.743055555555557 23.021918402777775  17.7734375 22.900390625  C 17.78862847222222 22.83962673611111  17.830403645833332 22.748480902777775  17.898763020833332 22.626953125  C 17.967122395833332 22.505425347222218  18.024088541666668 22.39529079861111  18.069661458333332 22.296549479166664  C 18.115234375 22.197808159722218  18.145616319444446 22.102864583333336  18.160807291666668 22.01171875  C 18.17599826388889 21.920572916666664  18.14181857638889 21.84841579861111  18.058268229166668 21.795247395833336  C 17.974717881944446 21.742078993055554  17.841796875 21.723090277777775  17.659505208333332 21.73828125  C 17.37087673611111 21.753472222222218  17.173394097222225 21.905381944444446  17.067057291666664 22.194010416666664  C 17.051866319444446 22.239583333333336  17.02907986111111 22.3193359375  16.998697916666664 22.433268229166664  C 16.968315972222225 22.547200520833336  16.930338541666664 22.63454861111111  16.884765625 22.6953125  C 16.839192708333336 22.756076388888882  16.770833333333336 22.809244791666664  16.6796875 22.854817708333336  C 16.573350694444446 22.900390625  16.39105902777778 22.915581597222218  16.1328125 22.900390625  C 15.874565972222225 22.885199652777775  15.692274305555557 22.847222222222218  15.5859375 22.786458333333336  C 15.38845486111111 22.664930555555554  15.21755642361111 22.444661458333336  15.0732421875 22.125651041666664  C 14.928927951388891 21.806640625  14.856770833333334 21.525607638888882  14.856770833333334 21.282552083333336  C 14.856770833333334 21.13064236111111  14.87575954861111 20.929361979166664  14.913736979166666 20.6787109375  C 14.951714409722225 20.428059895833336  14.974500868055557 20.238172743055554  14.982096354166666 20.109049479166664  C 14.989691840277779 19.979926215277775  14.947916666666666 19.793836805555554  14.856770833333334 19.55078125  C 14.90234375 19.520399305555554  14.970703125 19.4482421875  15.061848958333334 19.334309895833336  C 15.152994791666666 19.220377604166664  15.228949652777779 19.140625  15.289713541666666 19.095052083333336  C 15.32009548611111 19.07986111111111  15.35427517361111 19.068467881944446  15.392252604166666 19.060872395833336  C 15.430230034722225 19.053276909722218  15.464409722222225 19.053276909722218  15.494791666666666 19.060872395833336  C 15.52517361111111 19.068467881944446  15.555555555555557 19.057074652777775  15.5859375 19.026692708333336  C 15.616319444444445 18.99631076388889  15.639105902777779 18.950737847222218  15.654296875 18.889973958333336  C 15.639105902777779 18.87478298611111  15.608723958333334 18.851996527777775  15.563151041666666 18.821614583333336  C 15.517578125 18.776041666666664  15.487196180555557 18.753255208333336  15.472005208333334 18.753255208333336  C 15.578342013888891 18.798828125  15.794813368055557 18.787434895833336  16.121419270833336 18.719075520833336  C 16.44802517361111 18.650716145833336  16.656901041666664 18.662109375  16.748046875 18.753255208333336  C 16.975911458333336 18.920355902777775  17.14301215277778 18.905164930555554  17.249348958333336 18.707682291666664  C 17.249348958333336 18.692491319444446  17.230360243055557 18.62033420138889  17.1923828125 18.4912109375  C 17.154405381944446 18.36208767361111  17.15060763888889 18.25954861111111  17.180989583333336 18.18359375  C 17.256944444444446 18.59375  17.477213541666664 18.662109375  17.841796875 18.388671875  C 17.887369791666668 18.434244791666664  18.00509982638889 18.472222222222218  18.194986979166668 18.502604166666664  C 18.384874131944446 18.53298611111111  18.51779513888889 18.570963541666664  18.59375 18.616536458333336  C 18.639322916666668 18.646918402777775  18.69249131944445 18.68869357638889  18.753255208333332 18.741861979166664  C 18.81401909722222 18.795030381944446  18.855794270833332 18.829210069444446  18.878580729166668 18.844401041666664  C 18.9013671875 18.85959201388889  18.939344618055557 18.855794270833336  18.992513020833332 18.8330078125  C 19.045681423611114 18.810221354166664  19.110243055555557 18.760850694444446  19.186197916666668 18.684895833333336  C 19.33810763888889 18.897569444444446  19.42925347222222 19.07986111111111  19.459635416666668 19.231770833333336  C 19.626736111111114 19.839409722222218  19.77105034722222 20.17361111111111  19.892578125 20.234375  C 19.998914930555557 20.279947916666664  20.08246527777778 20.29513888888889  20.143229166666668 20.279947916666664  C 20.203993055555557 20.264756944444446  20.238172743055557 20.19259982638889  20.245768229166668 20.0634765625  C 20.25336371527778 19.93435329861111  20.25336371527778 19.828016493055554  20.245768229166668 19.744466145833336  C 20.238172743055557 19.66091579861111  20.22677951388889 19.565972222222218  20.211588541666668 19.459635416666664  L 20.188802083333332 19.27734375  L 20.188802083333332 18.8671875  L 20.166015625 18.684895833333336  C 19.938151041666668 18.639322916666664  19.797634548611114 18.548177083333336  19.744466145833332 18.411458333333336  C 19.691297743055557 18.274739583333336  19.70269097222222 18.134223090277775  19.778645833333332 17.989908854166664  C 19.85460069444445 17.845594618055554  19.968532986111114 17.705078125  20.120442708333332 17.568359375  C 20.135633680555557 17.553168402777775  20.196397569444446 17.52658420138889  20.302734375 17.488606770833332  C 20.409071180555557 17.45062934027778  20.52680121527778 17.401258680555554  20.655924479166668 17.340494791666668  C 20.785047743055557 17.27973090277778  20.87999131944445 17.218967013888886  20.940755208333332 17.158203125  C 21.259765625 16.86957465277778  21.373697916666668 16.603732638888886  21.282552083333332 16.360677083333332  C 21.38888888888889 16.360677083333332  21.472439236111114 16.292317708333332  21.533203125 16.155598958333332  C 21.51801215277778 16.155598958333332  21.48003472222222 16.1328125  21.419270833333332 16.087239583333332  C 21.35850694444445 16.041666666666668  21.301540798611114 16.00368923611111  21.248372395833332 15.973307291666668  C 21.195203993055557 15.942925347222223  21.161024305555557 15.927734375  21.145833333333332 15.927734375  C 21.282552083333332 15.851779513888888  21.297743055555557 15.730251736111109  21.19140625 15.563151041666668  C 21.267361111111114 15.517578125  21.324327256944446 15.434027777777777  21.3623046875 15.3125  C 21.400282118055557 15.190972222222223  21.45724826388889 15.115017361111109  21.533203125 15.084635416666668  C 21.669921875000004 15.266927083333332  21.829427083333336 15.282118055555555  22.01171875 15.130208333333332  C 22.13324652777778 15.008680555555555  22.14084201388889 14.887152777777777  22.034505208333332 14.765625  C 22.11046006944445 14.659288194444441  22.26616753472222 14.579535590277777  22.501627604166668 14.5263671875  C 22.737087673611114 14.473198784722218  22.877604166666668 14.401041666666664  22.923177083333332 14.309895833333332  C 23.02951388888889 14.340277777777777  23.09027777777778 14.325086805555555  23.10546875 14.264322916666668  C 23.12065972222222 14.203559027777777  23.128255208333332 14.112413194444441  23.128255208333332 13.990885416666668  C 23.128255208333332 13.869357638888888  23.151041666666668 13.778211805555555  23.196614583333332 13.717447916666668  C 23.25737847222222 13.641493055555555  23.37131076388889 13.573133680555555  23.538411458333332 13.512369791666668  C 23.705512152777782 13.451605902777777  23.80425347222222 13.413628472222218  23.834635416666668 13.3984375  L 24.222005208333332 13.147786458333332  C 24.267578125 13.087022569444441  24.267578125 13.056640625  24.222005208333332 13.056640625  C 24.495442708333332 13.087022569444441  24.730902777777782 13.003472222222223  24.928385416666668 12.805989583333332  C 25.08029513888889 12.638888888888888  25.03472222222222 12.486979166666668  24.791666666666668 12.350260416666668  C 24.837239583333332 12.259114583333332  24.814453125 12.186957465277777  24.723307291666668 12.1337890625  C 24.632161458333332 12.080620659722218  24.518229166666668 12.038845486111109  24.381510416666668 12.008463541666668  C 24.427083333333332 11.993272569444441  24.514431423611114 11.989474826388888  24.6435546875 11.9970703125  C 24.77267795138889 12.004665798611109  24.852430555555557 11.993272569444441  24.8828125 11.962890625  C 25.110677083333332 11.810980902777777  25.057508680555557 11.689453125  24.723307291666668 11.598307291666668  Z M 19.983723958333332 31.490885416666668  C 19.983723958333332 31.58203125  19.998914930555557 31.70355902777778  20.029296875 31.85546875  C 23.15863715277778 31.30859375  25.824652777777782 29.873046875  28.02734375 27.548828125  C 27.981770833333332 27.503255208333332  27.88682725694445 27.469075520833332  27.742513020833332 27.4462890625  C 27.59819878472222 27.423502604166668  27.503255208333332 27.39691840277778  27.457682291666668 27.366536458333332  C 27.184244791666668 27.26019965277778  27.001953125 27.19943576388889  26.910807291666668 27.184244791666668  C 26.92599826388889 27.07790798611111  26.907009548611114 26.979166666666668  26.853841145833332 26.888020833333332  C 26.800672743055557 26.796875  26.739908854166668 26.728515625  26.671549479166668 26.682942708333332  C 26.603190104166668 26.637369791666668  26.508246527777782 26.57660590277778  26.38671875 26.500651041666668  C 26.26519097222222 26.424696180555557  26.181640625 26.37152777777778  26.136067708333332 26.341145833333332  C 26.10568576388889 26.31076388888889  26.052517361111114 26.26519097222222  25.9765625 26.204427083333336  C 25.90060763888889 26.143663194444446  25.847439236111114 26.101888020833336  25.817057291666668 26.0791015625  C 25.78667534722222 26.056315104166664  25.72970920138889 26.022135416666664  25.646158854166668 25.9765625  C 25.56260850694445 25.930989583333336  25.498046875 25.91579861111111  25.452473958333332 25.930989583333336  C 25.406901041666668 25.946180555555554  25.330946180555557 25.953776041666664  25.224609375 25.953776041666664  L 25.15625 25.9765625  C 25.110677083333332 25.991753472222218  25.06890190972222 26.0107421875  25.030924479166668 26.033528645833336  C 24.992947048611114 26.056315104166664  24.951171875 26.0791015625  24.905598958333332 26.101888020833336  C 24.860026041666668 26.124674479166664  24.82964409722222 26.1474609375  24.814453125 26.170247395833336  C 24.799262152777782 26.193033854166664  24.799262152777782 26.212022569444446  24.814453125 26.227213541666664  C 24.495442708333332 25.968967013888882  24.222005208333332 25.801866319444446  23.994140625 25.725911458333336  C 23.91818576388889 25.71072048611111  23.834635416666668 25.6689453125  23.743489583333332 25.6005859375  C 23.65234375 25.5322265625  23.572591145833332 25.479058159722218  23.504231770833332 25.441080729166664  C 23.435872395833332 25.40310329861111  23.35991753472222 25.391710069444446  23.2763671875 25.406901041666664  C 23.19281684027778 25.422092013888882  23.10546875 25.475260416666664  23.014322916666668 25.56640625  C 22.938368055555557 25.64236111111111  22.89279513888889 25.756293402777775  22.877604166666668 25.908203125  C 22.862413194444446 26.060112847222218  22.84722222222222 26.158854166666664  22.83203125 26.204427083333336  C 22.725694444444446 26.128472222222218  22.725694444444446 25.995551215277775  22.83203125 25.8056640625  C 22.938368055555557 25.615776909722218  22.95355902777778 25.475260416666664  22.877604166666668 25.384114583333336  C 22.83203125 25.29296875  22.752278645833332 25.2587890625  22.638346354166668 25.281575520833336  C 22.5244140625 25.304361979166664  22.433268229166668 25.338541666666664  22.364908854166668 25.384114583333336  C 22.296549479166668 25.4296875  22.20920138888889 25.494249131944446  22.102864583333332 25.577799479166664  C 21.996527777777782 25.661349826388882  21.928168402777782 25.71072048611111  21.897786458333332 25.725911458333336  C 21.86740451388889 25.741102430555554  21.802842881944446 25.782877604166664  21.7041015625 25.851236979166664  C 21.605360243055557 25.919596354166664  21.540798611111114 25.9765625  21.510416666666668 26.022135416666664  C 21.46484375 26.082899305555554  21.419270833333332 26.174045138888882  21.373697916666668 26.295572916666668  C 21.328125 26.417100694444443  21.290147569444446 26.500651041666668  21.259765625 26.546223958333332  C 21.229383680555557 26.485460069444443  21.14203559027778 26.43608940972222  20.997721354166668 26.398111979166668  C 20.853407118055557 26.36013454861111  20.781250000000004 26.318359375  20.78125 26.272786458333332  C 20.811631944444446 26.424696180555557  20.84201388888889 26.690538194444443  20.872395833333332 27.0703125  C 20.902777777777782 27.45008680555555  20.940755208333336 27.73871527777778  20.986328125 27.936197916666668  C 21.092664930555557 28.407118055555557  21.00151909722222 28.77170138888889  20.712890625 29.029947916666668  C 20.302734375000004 29.40972222222222  20.082465277777782 29.713541666666668  20.052083333333332 29.94140625  C 19.99131944444445 30.27560763888889  20.082465277777782 30.47309027777778  20.325520833333332 30.533854166666668  C 20.325520833333332 30.64019097222222  20.264756944444446 30.7958984375  20.143229166666668 31.0009765625  C 20.02170138888889 31.2060546875  19.968532986111114 31.36935763888889  19.983723958333332 31.490885416666668  Z " fill-rule="nonzero" fill="#555555" stroke="none" transform="matrix(1 0 0 1 26 12 )" />
  </g>
</svg>